<?xml version="1.0" standalone="no"?>
<!DOCTYPE svg PUBLIC "-//W3C//DTD SVG 20010904//EN"
 "http://www.w3.org/TR/2001/REC-SVG-20010904/DTD/svg10.dtd">
<svg version="1.0" xmlns="http://www.w3.org/2000/svg"
 width="700.000000pt" height="700.000000pt" viewBox="0 0 700.000000 700.000000"
 preserveAspectRatio="xMidYMid meet">
<metadata>
Created by potrace 1.11, written by Peter Selinger 2001-2013
</metadata>
<g transform="translate(0.000000,700.000000) scale(0.100000,-0.100000)"
fill="#000000" stroke="none">
<path d="M3295 6994 c-16 -2 -86 -9 -155 -15 -383 -34 -804 -153 -1175 -334
-718 -349 -1321 -968 -1650 -1694 -154 -341 -245 -669 -292 -1051 -24 -200
-24 -600 0 -800 82 -675 327 -1257 756 -1800 98 -124 389 -415 516 -516 576
-460 1208 -711 1950 -774 515 -43 1115 54 1605 262 436 185 782 419 1121 757
223 224 381 423 529 671 448 746 602 1641 429 2494 -172 847 -645 1591 -1344
2115 -481 361 -1066 593 -1675 666 -126 15 -548 28 -615 19z m-595 -1802 c927
-599 1266 -815 1275 -815 6 0 138 73 295 163 496 285 443 259 551 266 179 12
387 -25 448 -80 29 -25 51 -75 51 -114 0 -116 -156 -433 -238 -486 -21 -13
-191 -112 -379 -221 l-343 -197 5 -52 c13 -131 97 -1947 91 -1970 -4 -18 -31
-40 -99 -81 -51 -30 -105 -55 -119 -55 -34 0 -138 39 -159 59 -16 15 -163 299
-591 1139 l-180 352 -56 -32 c-32 -18 -199 -114 -372 -214 l-315 -182 -41
-283 c-39 -271 -42 -283 -68 -306 -38 -32 -115 -32 -149 0 -15 12 -69 120
-128 254 l-104 231 -90 7 c-245 17 -286 83 -181 290 l48 94 -53 73 c-195 268
-259 362 -259 382 0 34 55 114 84 122 19 4 95 -21 283 -95 142 -56 264 -101
272 -101 8 0 95 47 195 104 317 182 531 307 539 315 8 8 -25 61 -453 721 -389
601 -417 644 -430 669 -17 34 5 164 34 197 33 37 194 116 219 108 12 -4 200
-122 417 -262z"/>
</g>
</svg>
