<?xml version="1.0" encoding="utf-8"?>
<!-- Generator: Adobe Illustrator 15.0.2, SVG Export Plug-In . SVG Version: 6.00 Build 0)  -->
<!DOCTYPE svg PUBLIC "-//W3C//DTD SVG 1.1//EN" "http://www.w3.org/Graphics/SVG/1.1/DTD/svg11.dtd">
<svg version="1.1" id="svg2367" xmlns:svg="http://www.w3.org/2000/svg"
	 xmlns="http://www.w3.org/2000/svg" xmlns:xlink="http://www.w3.org/1999/xlink" x="0px" y="0px" width="367.869px"
	 height="127.295px" viewBox="0 0 367.869 127.295" enable-background="new 0 0 367.869 127.295" xml:space="preserve">
<rect y="1.458" fill="transparent" width="367.869" height="125.837"/>
<g id="g6837" transform="translate(-255.632, 350.115)">
	<path id="path5411" fill="#F5C300" d="M372.58-272.771c-0.924-2.056-2.158-4.008-3.494-5.652c-1.336-1.644-2.98-3.186-4.625-4.419
		c-0.924-0.616-1.849-1.13-2.774-1.644l0,0c-0.513-0.309-1.027-0.514-1.542-0.719c0.514-0.308,1.028-0.513,1.542-0.822
		c0.925-0.412,1.849-1.028,2.774-1.645c1.644-1.233,3.289-2.672,4.625-4.419c1.336-1.644,2.568-3.596,3.494-5.651
		c0.925-2.158,1.644-4.418,2.056-6.781c0.205-1.645,0.411-3.289,0.411-4.831c0-0.72-0.103-1.542-0.103-2.26
		c-0.206-1.954-0.617-3.905-1.336-5.858c-0.617-1.951-1.542-3.802-2.569-5.549c-1.13-1.747-2.466-3.391-3.905-4.83
		c-1.541-1.541-3.288-2.775-5.035-3.905c-1.953-1.131-4.008-2.055-6.166-2.671c-2.26-0.617-4.624-1.028-6.987-1.028
		c-2.363-0.102-4.727,0.103-6.885,0.617c-2.158,0.513-4.213,1.335-6.063,2.362c-1.952,1.028-3.596,2.262-5.137,3.699
		c-1.439,1.439-2.672,3.084-3.7,4.933c-0.924,1.85-1.644,3.802-1.952,5.855c-0.206,1.132-0.309,2.16-0.309,3.289
		c0,0.925,0.103,1.747,0.206,2.671c-1.953-1.129-3.905-2.054-5.857-2.773c-2.466-0.72-5.138-1.233-8.015-1.336
		c-2.672,0-5.241,0.206-7.604,0.822c-2.261,0.513-4.419,1.336-6.474,2.466c-1.952,1.027-3.802,2.261-5.549,3.699
		c-1.233,0.925-2.364,2.056-3.494,3.186c0,0-1.747,1.645-2.569,2.672c-0.925,1.13-1.849,2.26-2.877,3.597l-2.158,2.775
		c-0.617,0.821-1.233,1.541-1.85,2.26c-0.925,1.027-1.85,2.056-2.877,3.082c-1.644,1.646-3.392,3.186-5.446,4.419
		c-0.308,0.309-0.72,0.617-1.233,0.822c-0.205,0.206-0.514,0.309-0.822,0.514c-0.205,0.103-0.514,0.309-0.514,0.616
		c0,0.309,0.309,0.411,0.514,0.617c0.308,0.102,0.617,0.206,0.822,0.41c0.513,0.31,0.925,0.514,1.233,0.822
		c2.056,1.234,3.802,2.774,5.446,4.418c1.027,1.028,1.952,2.057,2.877,3.085c0.617,0.718,1.233,1.438,1.85,2.259l2.158,2.775
		c1.028,1.336,1.952,2.569,2.877,3.596c0.822,1.028,2.569,2.673,2.569,2.673c1.13,1.233,2.261,2.26,3.494,3.184
		c1.748,1.439,3.597,2.776,5.549,3.701c2.056,1.129,4.213,1.952,6.474,2.466c2.363,0.615,4.932,0.821,7.604,0.821
		c2.877-0.103,5.549-0.514,8.015-1.335c1.952-0.616,3.905-1.644,5.857-2.774c-0.103,0.924-0.206,1.747-0.206,2.671
		c0,1.13,0.103,2.159,0.309,3.289c0.308,2.054,1.027,4.008,1.952,5.856c1.028,1.85,2.261,3.493,3.7,4.933
		c1.542,1.438,3.186,2.773,5.137,3.699c1.85,1.027,3.905,1.85,6.063,2.363c2.158,0.513,4.522,0.719,6.885,0.616
		c2.363,0,4.727-0.412,6.987-1.027c2.158-0.72,4.213-1.541,6.166-2.672c1.747-1.13,3.494-2.362,5.035-3.904
		c1.439-1.439,2.774-3.084,3.905-4.831c1.027-1.748,1.953-3.596,2.569-5.549c0.719-1.953,1.13-3.904,1.336-5.856
		c0-0.719,0.103-1.541,0.103-2.261c0-1.541-0.206-3.184-0.411-4.829C374.224-268.353,373.505-270.614,372.58-272.771"/>
	<path id="path5413" fill="#370E62" d="M366.723-270.51c-0.822-1.85-1.953-3.495-3.288-5.036c-1.233-1.438-2.877-2.774-4.522-3.801
		c-1.747-1.028-3.596-1.851-5.446-2.365c-2.056-0.616-4.11-0.924-6.166-0.924c-2.261,0-4.522,0.206-6.68,0.822
		c-1.747,0.411-3.494,1.027-5.138,1.849c-1.541,0.72-2.877,1.542-4.213,2.569c-1.336,0.925-2.466,1.85-3.7,2.775
		c-1.129,0.925-2.26,1.851-3.494,2.569c-1.233,0.822-2.569,1.438-3.905,1.953c-1.439,0.411-2.98,0.719-4.624,0.719
		c-2.056,0-4.213-0.412-6.166-1.233c-1.85-0.822-3.597-2.057-5.035-3.494c-1.438-1.439-2.569-3.289-3.391-5.138
		c-0.72-1.953-1.028-4.009-1.028-5.96c0-2.055,0.309-4.11,1.028-6.063c0.822-1.851,1.953-3.597,3.391-5.138
		c1.438-1.438,3.185-2.671,5.035-3.493c1.952-0.822,4.11-1.234,6.166-1.234c1.644,0,3.185,0.309,4.624,0.72
		c1.336,0.514,2.672,1.129,3.905,1.953c1.233,0.821,2.363,1.644,3.494,2.568c1.233,0.925,2.364,1.952,3.7,2.774
		c1.336,1.027,2.672,1.85,4.213,2.569c1.644,0.822,3.391,1.542,5.138,1.953c2.158,0.514,4.418,0.72,6.68,0.72
		c2.055,0,4.11-0.309,6.166-0.925c1.85-0.513,3.699-1.335,5.446-2.362c1.645-1.028,3.289-2.364,4.522-3.803
		c1.336-1.541,2.465-3.185,3.288-5.034c0.822-1.954,1.439-4.008,1.645-6.063c0.308-2.261,0.205-4.521-0.206-6.782
		c-0.411-2.055-1.13-4.008-2.158-5.96c-0.925-1.747-2.158-3.39-3.596-4.831c-1.438-1.334-3.083-2.569-4.83-3.493
		c-1.849-0.925-3.699-1.645-5.651-1.953c-2.158-0.411-4.213-0.617-6.371-0.309c-2.055,0.206-4.007,0.822-5.857,1.747
		c-1.747,0.924-3.391,2.055-4.727,3.494c-1.336,1.438-2.364,3.083-3.186,4.931c-0.72,1.747-1.233,3.7-1.336,5.652
		c-0.103,2.159,0.205,4.213,0.822,6.165c0,0.31,0.103,0.514,0.205,0.822c0,0.103,0.103,0.206,0.103,0.31
		c0.103,0.205,0.103,0.308,0.205,0.513c0,0,0.103,0.102,0.206,0.102c0.206,0,0.206-0.102,0.206-0.205
		c0.103-0.307,0.103-0.617,0.103-0.925c0.103-1.026,0.411-2.054,0.822-3.082c0.719-1.746,1.952-3.289,3.596-4.419
		c1.644-1.028,3.596-1.644,5.549-1.747c2.055-0.104,4.213,0.205,6.063,1.232c1.747,0.822,3.185,2.261,4.11,3.905
		c0.924,1.644,1.336,3.7,1.336,5.652c0,2.055-0.617,4.007-1.645,5.754c-1.027,1.747-2.569,3.185-4.418,4.007
		c-1.747,0.925-3.905,1.336-5.858,1.131c-1.438-0.206-2.773-0.617-4.007-1.131c-1.336-0.718-2.569-1.438-3.7-2.363
		c-1.233-0.924-2.466-1.953-3.596-2.98c-1.233-1.028-2.569-2.159-3.802-3.083c-1.438-1.129-2.877-2.056-4.316-2.878
		c-1.644-0.924-3.391-1.644-5.138-2.157c-2.055-0.514-4.11-0.822-6.165-0.822c-2.159,0-4.316,0.102-6.372,0.616
		c-1.747,0.412-3.494,1.026-5.138,1.953c-1.439,0.718-2.877,1.747-4.11,2.775c-1.336,1.13-2.466,2.259-3.596,3.494
		c-1.13,1.232-2.158,2.567-3.186,3.904c-0.924,1.233-1.952,2.57-2.979,3.803c-1.027,1.233-2.158,2.466-3.289,3.596
		c-1.13,1.234-2.363,2.261-3.699,3.083c-0.309,0.206-0.514,0.412-0.822,0.513c-0.206,0.205-0.412,0.205-0.617,0.309
		c-0.103,0.103-0.309,0.308-0.309,0.513c0,0.104,0.206,0.309,0.309,0.412c0.205,0.104,0.411,0.206,0.617,0.309
		c0.308,0.103,0.513,0.308,0.822,0.513c1.336,0.821,2.569,1.953,3.699,3.083c1.13,1.131,2.26,2.363,3.289,3.596
		c1.027,1.234,2.055,2.569,2.979,3.906c1.028,1.234,2.056,2.569,3.186,3.803c1.13,1.232,2.261,2.361,3.596,3.493
		c1.233,1.028,2.672,2.055,4.11,2.775c1.644,0.925,3.391,1.54,5.138,1.951c2.055,0.514,4.213,0.72,6.372,0.618
		c2.055,0,4.11-0.31,6.165-0.822c1.747-0.514,3.494-1.234,5.138-2.159c1.439-0.822,2.877-1.747,4.316-2.877
		c1.233-0.925,2.569-2.056,3.802-3.083c1.13-1.028,2.363-2.057,3.596-2.981c1.131-0.924,2.363-1.645,3.7-2.26
		c1.233-0.617,2.569-1.028,4.007-1.131c1.953-0.205,4.111,0.104,5.858,1.028c1.85,0.821,3.391,2.261,4.418,4.008
		s1.645,3.699,1.645,5.755c0,1.953-0.412,4.008-1.336,5.754c-0.925,1.645-2.364,2.979-4.11,3.802
		c-1.85,1.028-4.008,1.336-6.063,1.234c-1.952-0.103-3.905-0.719-5.549-1.747c-1.644-1.131-2.877-2.672-3.596-4.418
		c-0.411-1.028-0.719-2.056-0.822-3.084c0-0.308,0-0.615-0.103-0.924c0,0,0-0.206-0.206-0.206c-0.103,0-0.206,0.103-0.206,0.206
		c-0.103,0.103-0.103,0.206-0.205,0.412c0,0.102-0.103,0.205-0.103,0.308c-0.103,0.308-0.205,0.514-0.205,0.822
		c-0.617,1.953-0.924,4.008-0.822,6.166c0.103,1.952,0.616,3.905,1.336,5.651c0.822,1.849,1.849,3.494,3.186,4.83
		c1.336,1.541,2.98,2.673,4.727,3.597c1.85,0.925,3.802,1.541,5.857,1.747c2.158,0.308,4.213,0.206,6.371-0.31
		c1.952-0.308,3.802-1.027,5.651-1.952c1.747-0.924,3.391-2.158,4.83-3.493c1.439-1.438,2.672-3.083,3.596-4.83
		c1.028-1.952,1.747-3.906,2.158-6.063c0.411-2.158,0.513-4.418,0.206-6.68C368.162-266.503,367.545-268.558,366.723-270.51"/>
	<path id="path5415" fill="#B6007D" d="M336.82-285.205L336.82-285.205c0-0.102,0-0.205-0.103-0.205
		c-2.466-0.617-4.727-1.952-6.782-3.495c-2.158-1.542-4.213-3.288-6.474-4.83c-2.158-1.438-4.624-2.773-7.295-2.877
		c-2.158-0.206-4.316,0.309-6.166,1.336c-1.747,0.925-3.185,2.364-4.11,4.11c-1.027,1.746-1.542,3.802-1.542,5.856v0.103l0,0
		c0,2.055,0.514,4.111,1.542,5.858c0.925,1.747,2.363,3.184,4.11,4.109c1.85,1.027,4.008,1.542,6.166,1.438
		c2.672-0.206,5.138-1.542,7.295-2.98c2.261-1.541,4.316-3.288,6.474-4.831c2.055-1.542,4.316-2.876,6.782-3.494
		C336.82-285.103,336.82-285.205,336.82-285.205"/>
	<path id="path5417" fill="#F5C300" d="M562.786-254.48h24.66c-4.931-2.878-6.474-5.652-9.555-12.845
		c-16.956-39.357-23.018-53.023-23.018-53.023s-3.699,6.269-15.824,8.735c0.822,0.513,1.747,2.157,1.747,3.802
		c0,1.026-0.205,2.466-1.027,4.315l-16.133,36.17c-3.39,7.604-5.447,10.893-10.174,12.536c-3.7-2.157-4.521-4.213-4.521-11.817
		v-37.301c0-7.81,0.821-9.865,4.831-12.125H491.78c4.008,2.26,4.831,4.212,4.831,12.125v12.742h-30.623v-12.742
		c0-7.913,0.72-9.865,4.831-12.125h-22.092c4.11,2.26,4.83,4.212,4.83,12.125v37.301c0,7.913-0.719,9.865-4.83,12.125h22.092
		c-4.111-2.26-4.831-4.212-4.831-12.125v-16.03h30.623v16.03c0,7.81-0.821,9.865-4.933,12.125h43.569
		c-2.157-1.233-3.802-2.98-3.802-5.344c0-1.643,0.616-2.774,1.953-5.959l3.494-8.221h24.354l3.7,9.249
		c1.027,2.466,1.438,3.495,1.438,5.035C566.382-257.46,564.429-255.611,562.786-254.48z M540.075-281.609l9.25-22.093l8.94,22.093
		H540.075"/>
	<path id="path5419" fill="#F5C300" d="M604.711-266.605v-37.302c0-7.912,0.822-9.762,4.726-12.124H587.55
		c4.007,2.362,4.728,4.212,4.728,12.124v37.302c0,7.912-0.72,9.762-4.728,12.125h21.887
		C605.533-256.843,604.711-258.694,604.711-266.605"/>
	<path id="path5421" fill="#F5C300" d="M446.772-320.245L446.772-320.245c-2.261,1.849-5.858,4.212-15.62,4.212h-27.539
		c-5.446,0-7.604-3.186-8.631-5.138c-2.056,4.727-7.398,11.406-10.687,14.181h25.792c0,0.924,0,1.953,0,3.083v36.581
		c0,7.913-1.027,10.38-4.932,12.847h22.093c-4.008-2.363-4.727-4.214-4.727-12.126v-37.302c0-1.13-0.104-1.849-0.104-3.082h3.803
		c5.445,0,8.323-0.616,10.584-1.438C442.763-310.586,446.36-314.799,446.772-320.245L446.772-320.245L446.772-320.245"/>
</g>
</svg>
